<svg width="32" height="32" viewBox="0 0 32 32" fill="none" xmlns="http://www.w3.org/2000/svg">
  <!-- Background circle -->
  <circle cx="16" cy="16" r="16" fill="url(#gradient)"/>
  
  <!-- Moon symbol -->
  <path d="M12 8C10.3431 8 9 9.34315 9 11C9 12.6569 10.3431 14 12 14C12.5523 14 13 14.4477 13 15C13 16.6569 14.3431 18 16 18C16.5523 18 17 18.4477 17 19C17 20.6569 18.3431 22 20 22C21.6569 22 23 20.6569 23 19C23 17.3431 21.6569 16 20 16C19.4477 16 19 15.5523 19 15C19 13.3431 17.6569 12 16 12C15.4477 12 15 11.5523 15 11C15 9.34315 13.6569 8 12 8Z" fill="white"/>
  
  <!-- Stars -->
  <circle cx="8" cy="8" r="1.5" fill="white" opacity="0.8"/>
  <circle cx="24" cy="10" r="1" fill="white" opacity="0.6"/>
  <circle cx="22" cy="24" r="1.2" fill="white" opacity="0.7"/>
  <circle cx="10" cy="22" r="0.8" fill="white" opacity="0.5"/>
  
  <!-- Gradient definition -->
  <defs>
    <linearGradient id="gradient" x1="0%" y1="0%" x2="100%" y2="100%">
      <stop offset="0%" style="stop-color:#7c3aed"/>
      <stop offset="100%" style="stop-color:#a855f7"/>
    </linearGradient>
  </defs>
</svg>
